<svg width="48" height="48" viewBox="0 0 48 48" fill="none" xmlns="http://www.w3.org/2000/svg">
<path d="M22.1634 10.8916C22.7241 10.566 23.3432 10.3546 23.9853 10.2694C24.6274 10.1843 25.2799 10.2271 25.9054 10.3951C26.531 10.5636 27.1175 10.8541 27.6313 11.251C28.1451 11.6472 28.5762 12.1412 28.8999 12.705L37.4882 27.6435C37.8123 28.2071 38.0227 28.8294 38.1075 29.4748C38.1923 30.1202 38.1497 30.776 37.9822 31.4049C37.8146 32.0337 37.5254 32.6232 37.1312 33.1396C36.7369 33.6561 36.2453 34.0894 35.6843 34.4148C35.1236 34.7405 34.5046 34.9521 33.8624 35.0373C33.2204 35.1225 32.5679 35.0796 31.9423 34.9113C31.3167 34.7429 30.7302 34.4522 30.2164 34.0559C29.7026 33.6596 29.2715 33.1654 28.9478 32.6016L20.3596 17.6631C20.0344 17.0998 19.8232 16.4774 19.738 15.8318C19.6528 15.1863 19.6954 14.5302 19.8628 13.9011C20.0308 13.272 20.32 12.6824 20.7148 12.166C21.1096 11.6496 21.6019 11.2165 22.1634 10.8916Z" fill="black"/>
<path d="M18.4824 25.3688C19.0446 25.6929 19.5372 26.1256 19.9326 26.6419C20.328 27.1583 20.6178 27.748 20.7852 28.3773C20.9526 29.0066 20.9952 29.663 20.9094 30.3088C20.8236 30.9545 20.6118 31.5768 20.286 32.14L19.0566 34.2901C18.7344 34.8553 18.3042 35.3507 17.79 35.748C17.2764 36.1452 16.6896 36.4365 16.0638 36.605C15.438 36.7735 14.7846 36.8159 14.142 36.7298C13.5 36.6437 12.8808 36.4308 12.3204 36.1033C11.7582 35.7792 11.265 35.3465 10.8702 34.8301C10.4748 34.3138 10.185 33.724 10.0176 33.0948C9.84957 32.4655 9.80758 31.8091 9.89338 31.1633C9.97858 30.5176 10.191 29.8952 10.5168 29.332L11.7456 27.182C12.0684 26.6168 12.4986 26.1214 13.0122 25.7241C13.5258 25.3269 14.1126 25.0356 14.739 24.8671C15.3648 24.6986 16.0182 24.6562 16.6602 24.7423C17.3028 24.8284 17.922 25.0413 18.4824 25.3688Z" fill="black"/>
</svg>
