<svg width="87" height="90" viewBox="0 0 87 90" fill="none" xmlns="http://www.w3.org/2000/svg">
<path d="M37.3701 57.8926C43.0051 51.2658 39.1739 43.3393 39.1739 43.3393C35.5663 36.1027 27.5048 36.6001 27.5048 36.6001V43.596C34.8638 43.949 33.5389 50.3512 33.5389 50.3512C32.7727 54.5872 28.8617 54.8921 28.8617 54.8921C23.1947 55.1168 23.3224 50.0945 23.3224 50.0945L23.2904 24.4696C23.296 23.81 23.1719 23.1558 22.9254 22.5446C22.6789 21.9333 22.3147 21.377 21.8537 20.9075C19.587 18.629 17.0648 20.5545 16.123 21.9184C15.7234 22.4908 15.5164 23.1767 15.5323 23.8759L15.6121 50.9449C15.6121 50.9449 16.3784 59.4972 25.7329 61.7273C25.7329 61.7436 32.9323 63.1238 37.3701 57.8926Z" fill="#80E0BE"/>
<path d="M58.5694 61.2465C58.0087 61.5721 57.3896 61.7835 56.7475 61.8687C56.1054 61.9538 55.4529 61.9109 54.8273 61.743C54.2017 61.5745 53.6152 61.284 53.1014 60.8871C52.5877 60.4909 52.1566 59.9969 51.8329 59.433L43.2446 44.4946C42.9205 43.931 42.71 43.3087 42.6253 42.6633C42.5405 42.0179 42.5831 41.3621 42.7506 40.7332C42.9181 40.1044 43.2073 39.5149 43.6016 38.9985C43.9958 38.482 44.4875 38.0487 45.0484 37.7233C45.6091 37.3975 46.2282 37.186 46.8703 37.1008C47.5124 37.0156 48.1649 37.0584 48.7905 37.2268C49.4161 37.3952 50.0026 37.6859 50.5163 38.0822C51.0302 38.4785 51.4612 38.9727 51.785 39.5365L60.3732 54.475C60.6984 55.0383 60.9096 55.6607 60.9948 56.3062C61.08 56.9518 61.0374 57.6079 60.87 58.237C60.702 58.866 60.4128 59.4557 60.018 59.9721C59.6232 60.4885 59.1309 60.9216 58.5694 61.2465Z" fill="#80E0BE"/>
<path d="M62.8314 47.832C62.2692 47.5079 61.7766 47.0752 61.3812 46.5589C60.9858 46.0425 60.696 45.4528 60.5286 44.8235C60.3612 44.1942 60.3186 43.5378 60.4044 42.8921C60.4902 42.2463 60.702 41.624 61.0278 41.0608L62.2572 38.9107C62.5794 38.3455 63.0096 37.8501 63.5238 37.4529C64.0374 37.0556 64.6242 36.7643 65.25 36.5958C65.8758 36.4273 66.5292 36.3849 67.1718 36.471C67.8138 36.5571 68.433 36.77 68.9934 37.0975C69.5556 37.4216 70.0488 37.8544 70.4436 38.3707C70.839 38.887 71.1288 39.4768 71.2962 40.106C71.4642 40.7353 71.5062 41.3917 71.4204 42.0375C71.3352 42.6832 71.1228 43.3056 70.797 43.8688L69.5682 46.0189C69.2454 46.584 68.8152 47.0794 68.3016 47.4767C67.788 47.8739 67.2012 48.1652 66.5748 48.3337C65.949 48.5022 65.2956 48.5447 64.6536 48.4585C64.011 48.3724 63.3918 48.1595 62.8314 47.832Z" fill="#80E0BE"/>
</svg>
